<svg width="512" height="512" viewBox="0 0 512 512" xmlns="http://www.w3.org/2000/svg">
  <!-- Friendly Cloud Character with Lightning Bolt -->
  
  <!-- Cloud body -->
  <path d="M256 120c-40 0-75 25-90 60-20-15-45-25-70-25-60 0-110 50-110 110 0 60 50 110 110 110 25 0 50-10 70-25 15 35 50 60 90 60 55 0 100-45 100-100 0-25-10-50-25-70 35-15 60-50 60-90 0-55-45-100-100-100z" 
        fill="#00A1E0" stroke="#1798C1" stroke-width="3"/>
  
  <!-- Cloud highlights -->
  <ellipse cx="220" cy="180" rx="30" ry="25" fill="#FFFFFF" opacity="0.6"/>
  <ellipse cx="280" cy="200" rx="25" ry="20" fill="#FFFFFF" opacity="0.4"/>
  
  <!-- Happy face -->
  <circle cx="230" cy="250" r="12" fill="#16325C"/>
  <circle cx="282" cy="250" r="12" fill="#16325C"/>
  <circle cx="230" cy="250" r="6" fill="#FFFFFF"/>
  <circle cx="282" cy="250" r="6" fill="#FFFFFF"/>
  <path d="M 240 280 Q 256 300 272 280" stroke="#16325C" stroke-width="8" fill="none" stroke-linecap="round"/>
  
  <!-- Cloud hand holding lightning -->
  <ellipse cx="320" cy="240" rx="25" ry="30" fill="#00A1E0" stroke="#1798C1" stroke-width="2"/>
  
  <!-- Lightning bolt -->
  <path d="M 340 200 L 360 240 L 350 240 L 370 300 L 330 260 L 340 260 L 320 200 Z" 
        fill="#FFB75D" stroke="#FF6D00" stroke-width="3"/>
  
  <!-- Lightning highlights -->
  <path d="M 335 210 L 345 235 L 340 235 L 355 280 L 335 255 L 340 255 L 325 210 Z" 
        fill="#FFFFFF" opacity="0.6"/>
</svg>
